<svg xmlns="http://www.w3.org/2000/svg" width="400" height="300" viewBox="0 0 400 300" fill="none">
  <rect width="400" height="300" rx="20" fill="#ecfeff"/>
  
  <!-- Search bar -->
  <rect x="60" y="40" width="280" height="40" rx="20" fill="white" stroke="#06b6d4" stroke-width="2"/>
  <circle cx="85" cy="60" r="8" fill="#06b6d4" opacity="0.2"/>
  <path d="M82 60 L85 63 L88 57" stroke="#06b6d4" stroke-width="1.5" stroke-linecap="round" stroke-linejoin="round"/>
  <rect x="100" y="55" width="120" height="10" rx="5" fill="#e0f2fe"/>
  
  <!-- Filter chips -->
  <rect x="60" y="95" width="60" height="28" rx="14" fill="#06b6d4"/>
  <text x="90" y="113" text-anchor="middle" fill="white" font-family="sans-serif" font-size="10">AI/ML</text>
  
  <rect x="130" y="95" width="70" height="28" rx="14" fill="white" stroke="#06b6d4" stroke-width="1.5"/>
  <text x="165" y="113" text-anchor="middle" fill="#06b6d4" font-family="sans-serif" font-size="10">Web Dev</text>
  
  <rect x="210" y="95" width="55" height="28" rx="14" fill="white" stroke="#0891b2" stroke-width="1.5"/>
  <text x="237" y="113" text-anchor="middle" fill="#0891b2" font-family="sans-serif" font-size="10">IoT</text>
  
  <rect x="275" y="95" width="65" height="28" rx="14" fill="white" stroke="#0e7490" stroke-width="1.5"/>
  <text x="307" y="113" text-anchor="middle" fill="#0e7490" font-family="sans-serif" font-size="10">Easy</text>
  
  <!-- Result cards -->
  <rect x="60" y="145" width="130" height="60" rx="12" fill="white" stroke="#e0f2fe" stroke-width="1.5"/>
  <circle cx="80" cy="165" r="8" fill="#06b6d4" opacity="0.2"/>
  <rect x="95" y="160" width="80" height="8" rx="4" fill="#06b6d4" opacity="0.3"/>
  <rect x="95" y="173" width="60" height="6" rx="3" fill="#e0f2fe"/>
  <rect x="60" y="193" width="40" height="8" rx="4" fill="#22d3ee" opacity="0.4"/>
  
  <rect x="210" y="145" width="130" height="60" rx="12" fill="white" stroke="#e0f2fe" stroke-width="1.5"/>
  <circle cx="230" cy="165" r="8" fill="#0891b2" opacity="0.2"/>
  <rect x="245" y="160" width="80" height="8" rx="4" fill="#0891b2" opacity="0.3"/>
  <rect x="245" y="173" width="60" height="6" rx="3" fill="#e0f2fe"/>
  <rect x="210" y="193" width="40" height="8" rx="4" fill="#22d3ee" opacity="0.4"/>
  
  <rect x="60" y="220" width="130" height="60" rx="12" fill="white" stroke="#e0f2fe" stroke-width="1.5"/>
  <circle cx="80" cy="240" r="8" fill="#0e7490" opacity="0.2"/>
  <rect x="95" y="235" width="80" height="8" rx="4" fill="#0e7490" opacity="0.3"/>
  <rect x="95" y="248" width="60" height="6" rx="3" fill="#e0f2fe"/>
  <rect x="60" y="268" width="40" height="8" rx="4" fill="#22d3ee" opacity="0.4"/>
  
  <rect x="210" y="220" width="130" height="60" rx="12" fill="white" stroke="#e0f2fe" stroke-width="1.5"/>
  <circle cx="230" cy="240" r="8" fill="#06b6d4" opacity="0.2"/>
  <rect x="245" y="235" width="80" height="8" rx="4" fill="#06b6d4" opacity="0.3"/>
  <rect x="245" y="248" width="60" height="6" rx="3" fill="#e0f2fe"/>
  <rect x="210" y="268" width="40" height="8" rx="4" fill="#22d3ee" opacity="0.4"/>
</svg>
